<?xml version="1.0" encoding="UTF-8" standalone="no"?>
<!DOCTYPE svg PUBLIC "-//W3C//DTD SVG 1.1//EN" "http://www.w3.org/Graphics/SVG/1.1/DTD/svg11.dtd">
<svg width="100%" height="100%" viewBox="0 0 135 137" version="1.1" xmlns="http://www.w3.org/2000/svg" xmlns:xlink="http://www.w3.org/1999/xlink" xml:space="preserve"  style="fill-rule:evenodd;clip-rule:evenodd;stroke-linejoin:round;stroke-miterlimit:2;">
    <g id="pattern" transform="matrix(1,0,0,1,-15,-27.8)">
        <g>
            <circle cx="16.3" cy="29.1" r="1.3" style="fill:rgb(51,51,51);"/>
        </g>
        <g>
            <circle cx="83.6" cy="29.1" r="1.3" style="fill:rgb(51,51,51);"/>
        </g>
        <g transform="matrix(1,0,0,1,-2.6099,0)">
            <g opacity="0">
                <circle cx="151" cy="29.1" r="1.3" style="fill:rgb(255,0,0);"/>
            </g>
        </g>
        <g transform="matrix(1,0,0,1,-2.6099,68.3)">
            <g opacity="0">
                <circle cx="151" cy="29.1" r="1.3" style="fill:rgb(255,0,0);"/>
            </g>
        </g>
        <g transform="matrix(1,0,0,1,-2.6099,134.1)">
            <g opacity="0">
                <circle cx="151" cy="29.1" r="1.3" style="fill:rgb(255,0,0);"/>
            </g>
        </g>
        <g transform="matrix(1,0,0,1,-67.4,134.1)">
            <g opacity="0">
                <circle cx="151" cy="29.1" r="1.3" style="fill:rgb(255,0,0);"/>
            </g>
        </g>
        <g transform="matrix(1,0,0,1,-134.7,134.1)">
            <g opacity="0">
                <circle cx="151" cy="29.1" r="1.3" style="fill:rgb(255,0,0);"/>
            </g>
        </g>
        <g>
            <circle cx="16.3" cy="97.4" r="1.3" style="fill:rgb(51,51,51);"/>
        </g>
        <g>
            <circle cx="83.6" cy="97.4" r="1.3" style="fill:rgb(51,51,51);"/>
        </g>
    </g>
</svg>
