<?xml version="1.0" encoding="utf-8"?>
<!-- Generator: Adobe Illustrator 26.1.0, SVG Export Plug-In . SVG Version: 6.00 Build 0)  -->
<svg version="1.1" id="Layer_1" xmlns="http://www.w3.org/2000/svg" xmlns:xlink="http://www.w3.org/1999/xlink" x="0px" y="0px"
	 viewBox="0 0 1920 1080" style="enable-background:new 0 0 1920 1080;" xml:space="preserve">
<style type="text/css">
	.st0{fill:#333333;}
</style>
<g>
	<g>
		<circle class="st0" cx="16.3" cy="29.1" r="1.3"/>
	</g>
	<g>
		<circle class="st0" cx="83.6" cy="29.1" r="1.3"/>
	</g>
	<g>
		<circle class="st0" cx="151" cy="29.1" r="1.3"/>
	</g>
	<g>
		<circle class="st0" cx="218.4" cy="29.1" r="1.3"/>
	</g>
	<g>
		<circle class="st0" cx="285.8" cy="29.1" r="1.3"/>
	</g>
	<g>
		<circle class="st0" cx="353.2" cy="29.1" r="1.3"/>
	</g>
	<g>
		<circle class="st0" cx="420.5" cy="29.1" r="1.3"/>
	</g>
	<g>
		<circle class="st0" cx="487.9" cy="29.1" r="1.3"/>
	</g>
	<g>
		<circle class="st0" cx="555.3" cy="29.1" r="1.3"/>
	</g>
	<g>
		<circle class="st0" cx="622.7" cy="29.1" r="1.3"/>
	</g>
	<g>
		<circle class="st0" cx="690" cy="29.1" r="1.3"/>
	</g>
	<g>
		<circle class="st0" cx="757.4" cy="29.1" r="1.3"/>
	</g>
	<g>
		<circle class="st0" cx="824.8" cy="29.1" r="1.3"/>
	</g>
	<g>
		<circle class="st0" cx="892.2" cy="29.1" r="1.3"/>
	</g>
	<g>
		<circle class="st0" cx="959.5" cy="29.1" r="1.3"/>
	</g>
	<g>
		<circle class="st0" cx="1026.9" cy="29.1" r="1.3"/>
	</g>
	<g>
		<circle class="st0" cx="1094.3" cy="29.1" r="1.3"/>
	</g>
	<g>
		<circle class="st0" cx="1161.7" cy="29.1" r="1.3"/>
	</g>
	<g>
		<circle class="st0" cx="1229" cy="29.1" r="1.3"/>
	</g>
	<g>
		<circle class="st0" cx="1296.4" cy="29.1" r="1.3"/>
	</g>
	<g>
		<circle class="st0" cx="1363.8" cy="29.1" r="1.3"/>
	</g>
	<g>
		<circle class="st0" cx="1431.2" cy="29.1" r="1.3"/>
	</g>
	<g>
		<circle class="st0" cx="1498.5" cy="29.1" r="1.3"/>
	</g>
	<g>
		<circle class="st0" cx="1565.9" cy="29.1" r="1.3"/>
	</g>
	<g>
		<circle class="st0" cx="1633.3" cy="29.1" r="1.3"/>
	</g>
	<g>
		<circle class="st0" cx="1700.7" cy="29.1" r="1.3"/>
	</g>
	<g>
		<circle class="st0" cx="1768.1" cy="29.1" r="1.3"/>
	</g>
	<g>
		<circle class="st0" cx="1835.4" cy="29.1" r="1.3"/>
	</g>
	<g>
		<circle class="st0" cx="1902.8" cy="29.1" r="1.3"/>
	</g>
</g>
<g>
	<g>
		<circle class="st0" cx="16.3" cy="97.4" r="1.3"/>
	</g>
	<g>
		<circle class="st0" cx="83.6" cy="97.4" r="1.3"/>
	</g>
	<g>
		<circle class="st0" cx="151" cy="97.4" r="1.3"/>
	</g>
	<g>
		<circle class="st0" cx="218.4" cy="97.4" r="1.3"/>
	</g>
	<g>
		<circle class="st0" cx="285.8" cy="97.4" r="1.3"/>
	</g>
	<g>
		<circle class="st0" cx="353.2" cy="97.4" r="1.3"/>
	</g>
	<g>
		<circle class="st0" cx="420.5" cy="97.4" r="1.3"/>
	</g>
	<g>
		<circle class="st0" cx="487.9" cy="97.4" r="1.3"/>
	</g>
	<g>
		<circle class="st0" cx="555.3" cy="97.4" r="1.3"/>
	</g>
	<g>
		<circle class="st0" cx="622.7" cy="97.4" r="1.3"/>
	</g>
	<g>
		<circle class="st0" cx="690" cy="97.4" r="1.3"/>
	</g>
	<g>
		<circle class="st0" cx="757.4" cy="97.4" r="1.3"/>
	</g>
	<g>
		<circle class="st0" cx="824.8" cy="97.4" r="1.3"/>
	</g>
	<g>
		<circle class="st0" cx="892.2" cy="97.4" r="1.3"/>
	</g>
	<g>
		<circle class="st0" cx="959.5" cy="97.4" r="1.3"/>
	</g>
	<g>
		<circle class="st0" cx="1026.9" cy="97.4" r="1.3"/>
	</g>
	<g>
		<circle class="st0" cx="1094.3" cy="97.4" r="1.3"/>
	</g>
	<g>
		<circle class="st0" cx="1161.7" cy="97.4" r="1.3"/>
	</g>
	<g>
		<circle class="st0" cx="1229" cy="97.4" r="1.3"/>
	</g>
	<g>
		<circle class="st0" cx="1296.4" cy="97.4" r="1.3"/>
	</g>
	<g>
		<circle class="st0" cx="1363.8" cy="97.4" r="1.3"/>
	</g>
	<g>
		<circle class="st0" cx="1431.2" cy="97.4" r="1.3"/>
	</g>
	<g>
		<circle class="st0" cx="1498.5" cy="97.4" r="1.3"/>
	</g>
	<g>
		<circle class="st0" cx="1565.9" cy="97.4" r="1.3"/>
	</g>
	<g>
		<circle class="st0" cx="1633.3" cy="97.4" r="1.3"/>
	</g>
	<g>
		<circle class="st0" cx="1700.7" cy="97.4" r="1.3"/>
	</g>
	<g>
		<circle class="st0" cx="1768.1" cy="97.4" r="1.3"/>
	</g>
	<g>
		<circle class="st0" cx="1835.4" cy="97.4" r="1.3"/>
	</g>
	<g>
		<circle class="st0" cx="1902.8" cy="97.4" r="1.3"/>
	</g>
</g>
<g>
	<g>
		<circle class="st0" cx="16.3" cy="165.8" r="1.3"/>
	</g>
	<g>
		<circle class="st0" cx="83.6" cy="165.8" r="1.3"/>
	</g>
	<g>
		<circle class="st0" cx="151" cy="165.8" r="1.3"/>
	</g>
	<g>
		<circle class="st0" cx="218.4" cy="165.8" r="1.3"/>
	</g>
	<g>
		<circle class="st0" cx="285.8" cy="165.8" r="1.3"/>
	</g>
	<g>
		<circle class="st0" cx="353.2" cy="165.8" r="1.3"/>
	</g>
	<g>
		<circle class="st0" cx="420.5" cy="165.8" r="1.3"/>
	</g>
	<g>
		<circle class="st0" cx="487.9" cy="165.8" r="1.3"/>
	</g>
	<g>
		<circle class="st0" cx="555.3" cy="165.8" r="1.3"/>
	</g>
	<g>
		<circle class="st0" cx="622.7" cy="165.8" r="1.3"/>
	</g>
	<g>
		<circle class="st0" cx="690" cy="165.8" r="1.3"/>
	</g>
	<g>
		<circle class="st0" cx="757.4" cy="165.8" r="1.3"/>
	</g>
	<g>
		<circle class="st0" cx="824.8" cy="165.8" r="1.3"/>
	</g>
	<g>
		<circle class="st0" cx="892.2" cy="165.8" r="1.3"/>
	</g>
	<g>
		<circle class="st0" cx="959.5" cy="165.8" r="1.3"/>
	</g>
	<g>
		<circle class="st0" cx="1026.9" cy="165.8" r="1.3"/>
	</g>
	<g>
		<circle class="st0" cx="1094.3" cy="165.8" r="1.3"/>
	</g>
	<g>
		<circle class="st0" cx="1161.7" cy="165.8" r="1.3"/>
	</g>
	<g>
		<circle class="st0" cx="1229" cy="165.8" r="1.3"/>
	</g>
	<g>
		<circle class="st0" cx="1296.4" cy="165.8" r="1.3"/>
	</g>
	<g>
		<circle class="st0" cx="1363.8" cy="165.8" r="1.3"/>
	</g>
	<g>
		<circle class="st0" cx="1431.2" cy="165.8" r="1.3"/>
	</g>
	<g>
		<circle class="st0" cx="1498.5" cy="165.8" r="1.3"/>
	</g>
	<g>
		<circle class="st0" cx="1565.9" cy="165.8" r="1.3"/>
	</g>
	<g>
		<circle class="st0" cx="1633.3" cy="165.8" r="1.3"/>
	</g>
	<g>
		<circle class="st0" cx="1700.7" cy="165.8" r="1.3"/>
	</g>
	<g>
		<circle class="st0" cx="1768.1" cy="165.8" r="1.3"/>
	</g>
	<g>
		<circle class="st0" cx="1835.4" cy="165.8" r="1.3"/>
	</g>
	<g>
		<circle class="st0" cx="1902.8" cy="165.8" r="1.3"/>
	</g>
</g>
<g>
	<g>
		<circle class="st0" cx="16.3" cy="234.1" r="1.3"/>
	</g>
	<g>
		<circle class="st0" cx="83.6" cy="234.1" r="1.3"/>
	</g>
	<g>
		<circle class="st0" cx="151" cy="234.1" r="1.3"/>
	</g>
	<g>
		<circle class="st0" cx="218.4" cy="234.1" r="1.3"/>
	</g>
	<g>
		<circle class="st0" cx="285.8" cy="234.1" r="1.3"/>
	</g>
	<g>
		<circle class="st0" cx="353.2" cy="234.1" r="1.3"/>
	</g>
	<g>
		<circle class="st0" cx="420.5" cy="234.1" r="1.3"/>
	</g>
	<g>
		<circle class="st0" cx="487.9" cy="234.1" r="1.3"/>
	</g>
	<g>
		<circle class="st0" cx="555.3" cy="234.1" r="1.3"/>
	</g>
	<g>
		<circle class="st0" cx="622.7" cy="234.1" r="1.3"/>
	</g>
	<g>
		<circle class="st0" cx="690" cy="234.1" r="1.3"/>
	</g>
	<g>
		<circle class="st0" cx="757.4" cy="234.1" r="1.3"/>
	</g>
	<g>
		<circle class="st0" cx="824.8" cy="234.1" r="1.3"/>
	</g>
	<g>
		<circle class="st0" cx="892.2" cy="234.1" r="1.3"/>
	</g>
	<g>
		<circle class="st0" cx="959.5" cy="234.1" r="1.3"/>
	</g>
	<g>
		<circle class="st0" cx="1026.9" cy="234.1" r="1.3"/>
	</g>
	<g>
		<circle class="st0" cx="1094.3" cy="234.1" r="1.3"/>
	</g>
	<g>
		<circle class="st0" cx="1161.7" cy="234.1" r="1.3"/>
	</g>
	<g>
		<circle class="st0" cx="1229" cy="234.1" r="1.3"/>
	</g>
	<g>
		<circle class="st0" cx="1296.4" cy="234.1" r="1.3"/>
	</g>
	<g>
		<circle class="st0" cx="1363.8" cy="234.1" r="1.3"/>
	</g>
	<g>
		<circle class="st0" cx="1431.2" cy="234.1" r="1.3"/>
	</g>
	<g>
		<circle class="st0" cx="1498.5" cy="234.1" r="1.3"/>
	</g>
	<g>
		<circle class="st0" cx="1565.9" cy="234.1" r="1.3"/>
	</g>
	<g>
		<circle class="st0" cx="1633.3" cy="234.1" r="1.3"/>
	</g>
	<g>
		<circle class="st0" cx="1700.7" cy="234.1" r="1.3"/>
	</g>
	<g>
		<circle class="st0" cx="1768.1" cy="234.1" r="1.3"/>
	</g>
	<g>
		<circle class="st0" cx="1835.4" cy="234.1" r="1.3"/>
	</g>
	<g>
		<circle class="st0" cx="1902.8" cy="234.1" r="1.3"/>
	</g>
</g>
<g>
	<g>
		<circle class="st0" cx="16.3" cy="302.4" r="1.3"/>
	</g>
	<g>
		<circle class="st0" cx="83.6" cy="302.4" r="1.3"/>
	</g>
	<g>
		<circle class="st0" cx="151" cy="302.4" r="1.3"/>
	</g>
	<g>
		<circle class="st0" cx="218.4" cy="302.4" r="1.3"/>
	</g>
	<g>
		<circle class="st0" cx="285.8" cy="302.4" r="1.3"/>
	</g>
	<g>
		<circle class="st0" cx="353.2" cy="302.4" r="1.3"/>
	</g>
	<g>
		<circle class="st0" cx="420.5" cy="302.4" r="1.3"/>
	</g>
	<g>
		<circle class="st0" cx="487.9" cy="302.4" r="1.3"/>
	</g>
	<g>
		<circle class="st0" cx="555.3" cy="302.4" r="1.3"/>
	</g>
	<g>
		<circle class="st0" cx="622.7" cy="302.4" r="1.3"/>
	</g>
	<g>
		<circle class="st0" cx="690" cy="302.4" r="1.3"/>
	</g>
	<g>
		<circle class="st0" cx="757.4" cy="302.4" r="1.3"/>
	</g>
	<g>
		<circle class="st0" cx="824.8" cy="302.4" r="1.3"/>
	</g>
	<g>
		<circle class="st0" cx="892.2" cy="302.4" r="1.3"/>
	</g>
	<g>
		<circle class="st0" cx="959.5" cy="302.4" r="1.3"/>
	</g>
	<g>
		<circle class="st0" cx="1026.9" cy="302.4" r="1.3"/>
	</g>
	<g>
		<circle class="st0" cx="1094.3" cy="302.4" r="1.3"/>
	</g>
	<g>
		<circle class="st0" cx="1161.7" cy="302.4" r="1.3"/>
	</g>
	<g>
		<circle class="st0" cx="1229" cy="302.4" r="1.3"/>
	</g>
	<g>
		<circle class="st0" cx="1296.4" cy="302.4" r="1.3"/>
	</g>
	<g>
		<circle class="st0" cx="1363.8" cy="302.4" r="1.3"/>
	</g>
	<g>
		<circle class="st0" cx="1431.2" cy="302.4" r="1.3"/>
	</g>
	<g>
		<circle class="st0" cx="1498.5" cy="302.4" r="1.3"/>
	</g>
	<g>
		<circle class="st0" cx="1565.9" cy="302.4" r="1.3"/>
	</g>
	<g>
		<circle class="st0" cx="1633.3" cy="302.4" r="1.3"/>
	</g>
	<g>
		<circle class="st0" cx="1700.7" cy="302.4" r="1.3"/>
	</g>
	<g>
		<circle class="st0" cx="1768.1" cy="302.4" r="1.3"/>
	</g>
	<g>
		<circle class="st0" cx="1835.4" cy="302.4" r="1.3"/>
	</g>
	<g>
		<circle class="st0" cx="1902.8" cy="302.4" r="1.3"/>
	</g>
</g>
<g>
	<g>
		<circle class="st0" cx="16.3" cy="370.7" r="1.3"/>
	</g>
	<g>
		<circle class="st0" cx="83.6" cy="370.7" r="1.3"/>
	</g>
	<g>
		<circle class="st0" cx="151" cy="370.7" r="1.3"/>
	</g>
	<g>
		<circle class="st0" cx="218.4" cy="370.7" r="1.3"/>
	</g>
	<g>
		<circle class="st0" cx="285.8" cy="370.7" r="1.3"/>
	</g>
	<g>
		<circle class="st0" cx="353.2" cy="370.7" r="1.3"/>
	</g>
	<g>
		<circle class="st0" cx="420.5" cy="370.7" r="1.3"/>
	</g>
	<g>
		<circle class="st0" cx="487.9" cy="370.7" r="1.3"/>
	</g>
	<g>
		<circle class="st0" cx="555.3" cy="370.7" r="1.3"/>
	</g>
	<g>
		<circle class="st0" cx="622.7" cy="370.7" r="1.3"/>
	</g>
	<g>
		<circle class="st0" cx="690" cy="370.7" r="1.3"/>
	</g>
	<g>
		<circle class="st0" cx="757.4" cy="370.7" r="1.3"/>
	</g>
	<g>
		<circle class="st0" cx="824.8" cy="370.7" r="1.3"/>
	</g>
	<g>
		<circle class="st0" cx="892.2" cy="370.7" r="1.3"/>
	</g>
	<g>
		<circle class="st0" cx="959.5" cy="370.7" r="1.3"/>
	</g>
	<g>
		<circle class="st0" cx="1026.9" cy="370.7" r="1.3"/>
	</g>
	<g>
		<circle class="st0" cx="1094.3" cy="370.7" r="1.3"/>
	</g>
	<g>
		<circle class="st0" cx="1161.7" cy="370.7" r="1.3"/>
	</g>
	<g>
		<circle class="st0" cx="1229" cy="370.7" r="1.3"/>
	</g>
	<g>
		<circle class="st0" cx="1296.4" cy="370.7" r="1.3"/>
	</g>
	<g>
		<circle class="st0" cx="1363.8" cy="370.7" r="1.3"/>
	</g>
	<g>
		<circle class="st0" cx="1431.2" cy="370.7" r="1.3"/>
	</g>
	<g>
		<circle class="st0" cx="1498.5" cy="370.7" r="1.3"/>
	</g>
	<g>
		<circle class="st0" cx="1565.9" cy="370.7" r="1.3"/>
	</g>
	<g>
		<circle class="st0" cx="1633.3" cy="370.7" r="1.3"/>
	</g>
	<g>
		<circle class="st0" cx="1700.7" cy="370.7" r="1.3"/>
	</g>
	<g>
		<circle class="st0" cx="1768.1" cy="370.7" r="1.3"/>
	</g>
	<g>
		<circle class="st0" cx="1835.4" cy="370.7" r="1.3"/>
	</g>
	<g>
		<circle class="st0" cx="1902.8" cy="370.7" r="1.3"/>
	</g>
</g>
<g>
	<g>
		<circle class="st0" cx="16.3" cy="439.1" r="1.3"/>
	</g>
	<g>
		<circle class="st0" cx="83.6" cy="439.1" r="1.3"/>
	</g>
	<g>
		<circle class="st0" cx="151" cy="439.1" r="1.3"/>
	</g>
	<g>
		<circle class="st0" cx="218.4" cy="439.1" r="1.3"/>
	</g>
	<g>
		<circle class="st0" cx="285.8" cy="439.1" r="1.3"/>
	</g>
	<g>
		<circle class="st0" cx="353.2" cy="439.1" r="1.3"/>
	</g>
	<g>
		<circle class="st0" cx="420.5" cy="439.1" r="1.3"/>
	</g>
	<g>
		<circle class="st0" cx="487.9" cy="439.1" r="1.3"/>
	</g>
	<g>
		<circle class="st0" cx="555.3" cy="439.1" r="1.3"/>
	</g>
	<g>
		<circle class="st0" cx="622.7" cy="439.1" r="1.3"/>
	</g>
	<g>
		<circle class="st0" cx="690" cy="439.1" r="1.3"/>
	</g>
	<g>
		<circle class="st0" cx="757.4" cy="439.1" r="1.3"/>
	</g>
	<g>
		<circle class="st0" cx="824.8" cy="439.1" r="1.3"/>
	</g>
	<g>
		<circle class="st0" cx="892.2" cy="439.1" r="1.3"/>
	</g>
	<g>
		<circle class="st0" cx="959.5" cy="439.1" r="1.3"/>
	</g>
	<g>
		<circle class="st0" cx="1026.9" cy="439.1" r="1.3"/>
	</g>
	<g>
		<circle class="st0" cx="1094.3" cy="439.1" r="1.3"/>
	</g>
	<g>
		<circle class="st0" cx="1161.7" cy="439.1" r="1.3"/>
	</g>
	<g>
		<circle class="st0" cx="1229" cy="439.1" r="1.3"/>
	</g>
	<g>
		<circle class="st0" cx="1296.4" cy="439.1" r="1.3"/>
	</g>
	<g>
		<circle class="st0" cx="1363.8" cy="439.1" r="1.3"/>
	</g>
	<g>
		<circle class="st0" cx="1431.2" cy="439.1" r="1.3"/>
	</g>
	<g>
		<circle class="st0" cx="1498.5" cy="439.1" r="1.3"/>
	</g>
	<g>
		<circle class="st0" cx="1565.9" cy="439.1" r="1.3"/>
	</g>
	<g>
		<circle class="st0" cx="1633.3" cy="439.1" r="1.3"/>
	</g>
	<g>
		<circle class="st0" cx="1700.7" cy="439.1" r="1.3"/>
	</g>
	<g>
		<circle class="st0" cx="1768.1" cy="439.1" r="1.3"/>
	</g>
	<g>
		<circle class="st0" cx="1835.4" cy="439.1" r="1.3"/>
	</g>
	<g>
		<circle class="st0" cx="1902.8" cy="439.1" r="1.3"/>
	</g>
</g>
<g>
	<g>
		<circle class="st0" cx="16.3" cy="507.4" r="1.3"/>
	</g>
	<g>
		<circle class="st0" cx="83.6" cy="507.4" r="1.3"/>
	</g>
	<g>
		<circle class="st0" cx="151" cy="507.4" r="1.3"/>
	</g>
	<g>
		<circle class="st0" cx="218.4" cy="507.4" r="1.3"/>
	</g>
	<g>
		<circle class="st0" cx="285.8" cy="507.4" r="1.3"/>
	</g>
	<g>
		<circle class="st0" cx="353.2" cy="507.4" r="1.3"/>
	</g>
	<g>
		<circle class="st0" cx="420.5" cy="507.4" r="1.3"/>
	</g>
	<g>
		<circle class="st0" cx="487.9" cy="507.4" r="1.3"/>
	</g>
	<g>
		<circle class="st0" cx="555.3" cy="507.4" r="1.3"/>
	</g>
	<g>
		<circle class="st0" cx="622.7" cy="507.4" r="1.3"/>
	</g>
	<g>
		<circle class="st0" cx="690" cy="507.4" r="1.3"/>
	</g>
	<g>
		<circle class="st0" cx="757.4" cy="507.4" r="1.3"/>
	</g>
	<g>
		<circle class="st0" cx="824.8" cy="507.4" r="1.3"/>
	</g>
	<g>
		<circle class="st0" cx="892.2" cy="507.4" r="1.3"/>
	</g>
	<g>
		<circle class="st0" cx="959.5" cy="507.4" r="1.3"/>
	</g>
	<g>
		<circle class="st0" cx="1026.9" cy="507.4" r="1.3"/>
	</g>
	<g>
		<circle class="st0" cx="1094.3" cy="507.4" r="1.3"/>
	</g>
	<g>
		<circle class="st0" cx="1161.7" cy="507.4" r="1.3"/>
	</g>
	<g>
		<circle class="st0" cx="1229" cy="507.4" r="1.3"/>
	</g>
	<g>
		<circle class="st0" cx="1296.4" cy="507.4" r="1.3"/>
	</g>
	<g>
		<circle class="st0" cx="1363.8" cy="507.4" r="1.3"/>
	</g>
	<g>
		<circle class="st0" cx="1431.2" cy="507.4" r="1.3"/>
	</g>
	<g>
		<circle class="st0" cx="1498.5" cy="507.4" r="1.3"/>
	</g>
	<g>
		<circle class="st0" cx="1565.9" cy="507.4" r="1.3"/>
	</g>
	<g>
		<circle class="st0" cx="1633.3" cy="507.4" r="1.3"/>
	</g>
	<g>
		<circle class="st0" cx="1700.7" cy="507.4" r="1.3"/>
	</g>
	<g>
		<circle class="st0" cx="1768.1" cy="507.4" r="1.3"/>
	</g>
	<g>
		<circle class="st0" cx="1835.4" cy="507.4" r="1.3"/>
	</g>
	<g>
		<circle class="st0" cx="1902.8" cy="507.4" r="1.3"/>
	</g>
</g>
<g>
	<g>
		<circle class="st0" cx="16.3" cy="575.7" r="1.3"/>
	</g>
	<g>
		<circle class="st0" cx="83.6" cy="575.7" r="1.3"/>
	</g>
	<g>
		<circle class="st0" cx="151" cy="575.7" r="1.3"/>
	</g>
	<g>
		<circle class="st0" cx="218.4" cy="575.7" r="1.3"/>
	</g>
	<g>
		<circle class="st0" cx="285.8" cy="575.7" r="1.3"/>
	</g>
	<g>
		<circle class="st0" cx="353.2" cy="575.7" r="1.3"/>
	</g>
	<g>
		<circle class="st0" cx="420.5" cy="575.7" r="1.3"/>
	</g>
	<g>
		<circle class="st0" cx="487.9" cy="575.7" r="1.3"/>
	</g>
	<g>
		<circle class="st0" cx="555.3" cy="575.7" r="1.3"/>
	</g>
	<g>
		<circle class="st0" cx="622.7" cy="575.7" r="1.3"/>
	</g>
	<g>
		<circle class="st0" cx="690" cy="575.7" r="1.3"/>
	</g>
	<g>
		<circle class="st0" cx="757.4" cy="575.7" r="1.3"/>
	</g>
	<g>
		<circle class="st0" cx="824.8" cy="575.7" r="1.3"/>
	</g>
	<g>
		<circle class="st0" cx="892.2" cy="575.7" r="1.3"/>
	</g>
	<g>
		<circle class="st0" cx="959.5" cy="575.7" r="1.3"/>
	</g>
	<g>
		<circle class="st0" cx="1026.9" cy="575.7" r="1.3"/>
	</g>
	<g>
		<circle class="st0" cx="1094.3" cy="575.7" r="1.3"/>
	</g>
	<g>
		<circle class="st0" cx="1161.7" cy="575.7" r="1.3"/>
	</g>
	<g>
		<circle class="st0" cx="1229" cy="575.7" r="1.3"/>
	</g>
	<g>
		<circle class="st0" cx="1296.4" cy="575.7" r="1.3"/>
	</g>
	<g>
		<circle class="st0" cx="1363.8" cy="575.7" r="1.3"/>
	</g>
	<g>
		<circle class="st0" cx="1431.2" cy="575.7" r="1.3"/>
	</g>
	<g>
		<circle class="st0" cx="1498.5" cy="575.7" r="1.3"/>
	</g>
	<g>
		<circle class="st0" cx="1565.9" cy="575.7" r="1.3"/>
	</g>
	<g>
		<circle class="st0" cx="1633.3" cy="575.7" r="1.3"/>
	</g>
	<g>
		<circle class="st0" cx="1700.7" cy="575.7" r="1.3"/>
	</g>
	<g>
		<circle class="st0" cx="1768.1" cy="575.7" r="1.3"/>
	</g>
	<g>
		<circle class="st0" cx="1835.4" cy="575.7" r="1.3"/>
	</g>
	<g>
		<circle class="st0" cx="1902.8" cy="575.7" r="1.3"/>
	</g>
</g>
<g>
	<g>
		<circle class="st0" cx="16.3" cy="644.1" r="1.3"/>
	</g>
	<g>
		<circle class="st0" cx="83.6" cy="644.1" r="1.3"/>
	</g>
	<g>
		<circle class="st0" cx="151" cy="644.1" r="1.3"/>
	</g>
	<g>
		<circle class="st0" cx="218.4" cy="644.1" r="1.3"/>
	</g>
	<g>
		<circle class="st0" cx="285.8" cy="644.1" r="1.3"/>
	</g>
	<g>
		<circle class="st0" cx="353.2" cy="644.1" r="1.3"/>
	</g>
	<g>
		<circle class="st0" cx="420.5" cy="644.1" r="1.3"/>
	</g>
	<g>
		<circle class="st0" cx="487.9" cy="644.1" r="1.3"/>
	</g>
	<g>
		<circle class="st0" cx="555.3" cy="644.1" r="1.3"/>
	</g>
	<g>
		<circle class="st0" cx="622.7" cy="644.1" r="1.3"/>
	</g>
	<g>
		<circle class="st0" cx="690" cy="644.1" r="1.3"/>
	</g>
	<g>
		<circle class="st0" cx="757.4" cy="644.1" r="1.3"/>
	</g>
	<g>
		<circle class="st0" cx="824.8" cy="644.1" r="1.3"/>
	</g>
	<g>
		<circle class="st0" cx="892.2" cy="644.1" r="1.3"/>
	</g>
	<g>
		<circle class="st0" cx="959.5" cy="644.1" r="1.3"/>
	</g>
	<g>
		<circle class="st0" cx="1026.9" cy="644.1" r="1.3"/>
	</g>
	<g>
		<circle class="st0" cx="1094.3" cy="644.1" r="1.3"/>
	</g>
	<g>
		<circle class="st0" cx="1161.7" cy="644.1" r="1.3"/>
	</g>
	<g>
		<circle class="st0" cx="1229" cy="644.1" r="1.3"/>
	</g>
	<g>
		<circle class="st0" cx="1296.4" cy="644.1" r="1.3"/>
	</g>
	<g>
		<circle class="st0" cx="1363.8" cy="644.1" r="1.3"/>
	</g>
	<g>
		<circle class="st0" cx="1431.2" cy="644.1" r="1.3"/>
	</g>
	<g>
		<circle class="st0" cx="1498.5" cy="644.1" r="1.3"/>
	</g>
	<g>
		<circle class="st0" cx="1565.9" cy="644.1" r="1.3"/>
	</g>
	<g>
		<circle class="st0" cx="1633.3" cy="644.1" r="1.3"/>
	</g>
	<g>
		<circle class="st0" cx="1700.7" cy="644.1" r="1.3"/>
	</g>
	<g>
		<circle class="st0" cx="1768.1" cy="644.1" r="1.3"/>
	</g>
	<g>
		<circle class="st0" cx="1835.4" cy="644.1" r="1.3"/>
	</g>
	<g>
		<circle class="st0" cx="1902.8" cy="644.1" r="1.3"/>
	</g>
</g>
<g>
	<g>
		<circle class="st0" cx="16.3" cy="712.4" r="1.3"/>
	</g>
	<g>
		<circle class="st0" cx="83.6" cy="712.4" r="1.3"/>
	</g>
	<g>
		<circle class="st0" cx="151" cy="712.4" r="1.3"/>
	</g>
	<g>
		<circle class="st0" cx="218.4" cy="712.4" r="1.3"/>
	</g>
	<g>
		<circle class="st0" cx="285.8" cy="712.4" r="1.3"/>
	</g>
	<g>
		<circle class="st0" cx="353.2" cy="712.4" r="1.3"/>
	</g>
	<g>
		<circle class="st0" cx="420.5" cy="712.4" r="1.3"/>
	</g>
	<g>
		<circle class="st0" cx="487.9" cy="712.4" r="1.3"/>
	</g>
	<g>
		<circle class="st0" cx="555.3" cy="712.4" r="1.3"/>
	</g>
	<g>
		<circle class="st0" cx="622.7" cy="712.4" r="1.3"/>
	</g>
	<g>
		<circle class="st0" cx="690" cy="712.4" r="1.3"/>
	</g>
	<g>
		<circle class="st0" cx="757.4" cy="712.4" r="1.3"/>
	</g>
	<g>
		<circle class="st0" cx="824.8" cy="712.4" r="1.3"/>
	</g>
	<g>
		<circle class="st0" cx="892.2" cy="712.4" r="1.3"/>
	</g>
	<g>
		<circle class="st0" cx="959.5" cy="712.4" r="1.3"/>
	</g>
	<g>
		<circle class="st0" cx="1026.9" cy="712.4" r="1.3"/>
	</g>
	<g>
		<circle class="st0" cx="1094.3" cy="712.4" r="1.3"/>
	</g>
	<g>
		<circle class="st0" cx="1161.7" cy="712.4" r="1.3"/>
	</g>
	<g>
		<circle class="st0" cx="1229" cy="712.4" r="1.3"/>
	</g>
	<g>
		<circle class="st0" cx="1296.4" cy="712.4" r="1.3"/>
	</g>
	<g>
		<circle class="st0" cx="1363.8" cy="712.4" r="1.3"/>
	</g>
	<g>
		<circle class="st0" cx="1431.2" cy="712.4" r="1.3"/>
	</g>
	<g>
		<circle class="st0" cx="1498.5" cy="712.4" r="1.3"/>
	</g>
	<g>
		<circle class="st0" cx="1565.9" cy="712.4" r="1.3"/>
	</g>
	<g>
		<circle class="st0" cx="1633.3" cy="712.4" r="1.3"/>
	</g>
	<g>
		<circle class="st0" cx="1700.7" cy="712.4" r="1.3"/>
	</g>
	<g>
		<circle class="st0" cx="1768.1" cy="712.4" r="1.3"/>
	</g>
	<g>
		<circle class="st0" cx="1835.4" cy="712.4" r="1.3"/>
	</g>
	<g>
		<circle class="st0" cx="1902.8" cy="712.4" r="1.3"/>
	</g>
</g>
<g>
	<g>
		<circle class="st0" cx="16.3" cy="780.7" r="1.3"/>
	</g>
	<g>
		<circle class="st0" cx="83.6" cy="780.7" r="1.3"/>
	</g>
	<g>
		<circle class="st0" cx="151" cy="780.7" r="1.3"/>
	</g>
	<g>
		<circle class="st0" cx="218.4" cy="780.7" r="1.3"/>
	</g>
	<g>
		<circle class="st0" cx="285.8" cy="780.7" r="1.3"/>
	</g>
	<g>
		<circle class="st0" cx="353.2" cy="780.7" r="1.3"/>
	</g>
	<g>
		<circle class="st0" cx="420.5" cy="780.7" r="1.3"/>
	</g>
	<g>
		<circle class="st0" cx="487.9" cy="780.7" r="1.3"/>
	</g>
	<g>
		<circle class="st0" cx="555.3" cy="780.7" r="1.3"/>
	</g>
	<g>
		<circle class="st0" cx="622.7" cy="780.7" r="1.3"/>
	</g>
	<g>
		<circle class="st0" cx="690" cy="780.7" r="1.3"/>
	</g>
	<g>
		<circle class="st0" cx="757.4" cy="780.7" r="1.3"/>
	</g>
	<g>
		<circle class="st0" cx="824.8" cy="780.7" r="1.3"/>
	</g>
	<g>
		<circle class="st0" cx="892.2" cy="780.7" r="1.3"/>
	</g>
	<g>
		<circle class="st0" cx="959.5" cy="780.7" r="1.3"/>
	</g>
	<g>
		<circle class="st0" cx="1026.9" cy="780.7" r="1.3"/>
	</g>
	<g>
		<circle class="st0" cx="1094.3" cy="780.7" r="1.3"/>
	</g>
	<g>
		<circle class="st0" cx="1161.7" cy="780.7" r="1.3"/>
	</g>
	<g>
		<circle class="st0" cx="1229" cy="780.7" r="1.3"/>
	</g>
	<g>
		<circle class="st0" cx="1296.4" cy="780.7" r="1.3"/>
	</g>
	<g>
		<circle class="st0" cx="1363.8" cy="780.7" r="1.3"/>
	</g>
	<g>
		<circle class="st0" cx="1431.2" cy="780.7" r="1.3"/>
	</g>
	<g>
		<circle class="st0" cx="1498.5" cy="780.7" r="1.3"/>
	</g>
	<g>
		<circle class="st0" cx="1565.9" cy="780.7" r="1.3"/>
	</g>
	<g>
		<circle class="st0" cx="1633.3" cy="780.7" r="1.3"/>
	</g>
	<g>
		<circle class="st0" cx="1700.7" cy="780.7" r="1.3"/>
	</g>
	<g>
		<circle class="st0" cx="1768.1" cy="780.7" r="1.3"/>
	</g>
	<g>
		<circle class="st0" cx="1835.4" cy="780.7" r="1.3"/>
	</g>
	<g>
		<circle class="st0" cx="1902.8" cy="780.7" r="1.3"/>
	</g>
</g>
<g>
	<g>
		<circle class="st0" cx="16.3" cy="849.1" r="1.3"/>
	</g>
	<g>
		<circle class="st0" cx="83.6" cy="849.1" r="1.3"/>
	</g>
	<g>
		<circle class="st0" cx="151" cy="849.1" r="1.3"/>
	</g>
	<g>
		<circle class="st0" cx="218.4" cy="849.1" r="1.3"/>
	</g>
	<g>
		<circle class="st0" cx="285.8" cy="849.1" r="1.3"/>
	</g>
	<g>
		<circle class="st0" cx="353.2" cy="849.1" r="1.3"/>
	</g>
	<g>
		<circle class="st0" cx="420.5" cy="849.1" r="1.3"/>
	</g>
	<g>
		<circle class="st0" cx="487.9" cy="849.1" r="1.3"/>
	</g>
	<g>
		<circle class="st0" cx="555.3" cy="849.1" r="1.3"/>
	</g>
	<g>
		<circle class="st0" cx="622.7" cy="849.1" r="1.3"/>
	</g>
	<g>
		<circle class="st0" cx="690" cy="849.1" r="1.3"/>
	</g>
	<g>
		<circle class="st0" cx="757.4" cy="849.1" r="1.3"/>
	</g>
	<g>
		<circle class="st0" cx="824.8" cy="849.1" r="1.3"/>
	</g>
	<g>
		<circle class="st0" cx="892.2" cy="849.1" r="1.3"/>
	</g>
	<g>
		<circle class="st0" cx="959.5" cy="849.1" r="1.3"/>
	</g>
	<g>
		<circle class="st0" cx="1026.9" cy="849.1" r="1.3"/>
	</g>
	<g>
		<circle class="st0" cx="1094.3" cy="849.1" r="1.3"/>
	</g>
	<g>
		<circle class="st0" cx="1161.7" cy="849.1" r="1.3"/>
	</g>
	<g>
		<circle class="st0" cx="1229" cy="849.1" r="1.3"/>
	</g>
	<g>
		<circle class="st0" cx="1296.4" cy="849.1" r="1.3"/>
	</g>
	<g>
		<circle class="st0" cx="1363.8" cy="849.1" r="1.3"/>
	</g>
	<g>
		<circle class="st0" cx="1431.2" cy="849.1" r="1.3"/>
	</g>
	<g>
		<circle class="st0" cx="1498.5" cy="849.1" r="1.3"/>
	</g>
	<g>
		<circle class="st0" cx="1565.9" cy="849.1" r="1.3"/>
	</g>
	<g>
		<circle class="st0" cx="1633.3" cy="849.1" r="1.3"/>
	</g>
	<g>
		<circle class="st0" cx="1700.7" cy="849.1" r="1.3"/>
	</g>
	<g>
		<circle class="st0" cx="1768.1" cy="849.1" r="1.3"/>
	</g>
	<g>
		<circle class="st0" cx="1835.4" cy="849.1" r="1.3"/>
	</g>
	<g>
		<circle class="st0" cx="1902.8" cy="849.1" r="1.3"/>
	</g>
</g>
<g>
	<g>
		<circle class="st0" cx="16.3" cy="917.4" r="1.3"/>
	</g>
	<g>
		<circle class="st0" cx="83.6" cy="917.4" r="1.3"/>
	</g>
	<g>
		<circle class="st0" cx="151" cy="917.4" r="1.3"/>
	</g>
	<g>
		<circle class="st0" cx="218.4" cy="917.4" r="1.3"/>
	</g>
	<g>
		<circle class="st0" cx="285.8" cy="917.4" r="1.3"/>
	</g>
	<g>
		<circle class="st0" cx="353.2" cy="917.4" r="1.3"/>
	</g>
	<g>
		<circle class="st0" cx="420.5" cy="917.4" r="1.3"/>
	</g>
	<g>
		<circle class="st0" cx="487.9" cy="917.4" r="1.3"/>
	</g>
	<g>
		<circle class="st0" cx="555.3" cy="917.4" r="1.3"/>
	</g>
	<g>
		<circle class="st0" cx="622.7" cy="917.4" r="1.3"/>
	</g>
	<g>
		<circle class="st0" cx="690" cy="917.4" r="1.3"/>
	</g>
	<g>
		<circle class="st0" cx="757.4" cy="917.4" r="1.3"/>
	</g>
	<g>
		<circle class="st0" cx="824.8" cy="917.4" r="1.3"/>
	</g>
	<g>
		<circle class="st0" cx="892.2" cy="917.4" r="1.3"/>
	</g>
	<g>
		<circle class="st0" cx="959.5" cy="917.4" r="1.3"/>
	</g>
	<g>
		<circle class="st0" cx="1026.9" cy="917.4" r="1.3"/>
	</g>
	<g>
		<circle class="st0" cx="1094.3" cy="917.4" r="1.3"/>
	</g>
	<g>
		<circle class="st0" cx="1161.7" cy="917.4" r="1.3"/>
	</g>
	<g>
		<circle class="st0" cx="1229" cy="917.4" r="1.3"/>
	</g>
	<g>
		<circle class="st0" cx="1296.4" cy="917.4" r="1.3"/>
	</g>
	<g>
		<circle class="st0" cx="1363.8" cy="917.4" r="1.3"/>
	</g>
	<g>
		<circle class="st0" cx="1431.2" cy="917.4" r="1.3"/>
	</g>
	<g>
		<circle class="st0" cx="1498.5" cy="917.4" r="1.3"/>
	</g>
	<g>
		<circle class="st0" cx="1565.9" cy="917.4" r="1.3"/>
	</g>
	<g>
		<circle class="st0" cx="1633.3" cy="917.4" r="1.3"/>
	</g>
	<g>
		<circle class="st0" cx="1700.7" cy="917.4" r="1.3"/>
	</g>
	<g>
		<circle class="st0" cx="1768.1" cy="917.4" r="1.3"/>
	</g>
	<g>
		<circle class="st0" cx="1835.4" cy="917.4" r="1.3"/>
	</g>
	<g>
		<circle class="st0" cx="1902.8" cy="917.4" r="1.3"/>
	</g>
</g>
<g>
	<g>
		<circle class="st0" cx="16.3" cy="985.7" r="1.3"/>
	</g>
	<g>
		<circle class="st0" cx="83.6" cy="985.7" r="1.3"/>
	</g>
	<g>
		<circle class="st0" cx="151" cy="985.7" r="1.3"/>
	</g>
	<g>
		<circle class="st0" cx="218.4" cy="985.7" r="1.3"/>
	</g>
	<g>
		<circle class="st0" cx="285.8" cy="985.7" r="1.3"/>
	</g>
	<g>
		<circle class="st0" cx="353.2" cy="985.7" r="1.3"/>
	</g>
	<g>
		<circle class="st0" cx="420.5" cy="985.7" r="1.3"/>
	</g>
	<g>
		<circle class="st0" cx="487.9" cy="985.7" r="1.3"/>
	</g>
	<g>
		<circle class="st0" cx="555.3" cy="985.7" r="1.3"/>
	</g>
	<g>
		<circle class="st0" cx="622.7" cy="985.7" r="1.3"/>
	</g>
	<g>
		<circle class="st0" cx="690" cy="985.7" r="1.3"/>
	</g>
	<g>
		<circle class="st0" cx="757.4" cy="985.7" r="1.3"/>
	</g>
	<g>
		<circle class="st0" cx="824.8" cy="985.7" r="1.3"/>
	</g>
	<g>
		<circle class="st0" cx="892.2" cy="985.7" r="1.3"/>
	</g>
	<g>
		<circle class="st0" cx="959.5" cy="985.7" r="1.3"/>
	</g>
	<g>
		<circle class="st0" cx="1026.9" cy="985.7" r="1.3"/>
	</g>
	<g>
		<circle class="st0" cx="1094.3" cy="985.7" r="1.3"/>
	</g>
	<g>
		<circle class="st0" cx="1161.7" cy="985.7" r="1.3"/>
	</g>
	<g>
		<circle class="st0" cx="1229" cy="985.7" r="1.3"/>
	</g>
	<g>
		<circle class="st0" cx="1296.4" cy="985.7" r="1.3"/>
	</g>
	<g>
		<circle class="st0" cx="1363.8" cy="985.7" r="1.3"/>
	</g>
	<g>
		<circle class="st0" cx="1431.2" cy="985.7" r="1.3"/>
	</g>
	<g>
		<circle class="st0" cx="1498.5" cy="985.7" r="1.3"/>
	</g>
	<g>
		<circle class="st0" cx="1565.9" cy="985.7" r="1.3"/>
	</g>
	<g>
		<circle class="st0" cx="1633.3" cy="985.7" r="1.3"/>
	</g>
	<g>
		<circle class="st0" cx="1700.7" cy="985.7" r="1.3"/>
	</g>
	<g>
		<circle class="st0" cx="1768.1" cy="985.7" r="1.3"/>
	</g>
	<g>
		<circle class="st0" cx="1835.4" cy="985.7" r="1.3"/>
	</g>
	<g>
		<circle class="st0" cx="1902.8" cy="985.7" r="1.3"/>
	</g>
</g>
<g>
	<g>
		<circle class="st0" cx="16.3" cy="1054.1" r="1.3"/>
	</g>
	<g>
		<circle class="st0" cx="83.6" cy="1054.1" r="1.3"/>
	</g>
	<g>
		<circle class="st0" cx="151" cy="1054.1" r="1.3"/>
	</g>
	<g>
		<circle class="st0" cx="218.4" cy="1054.1" r="1.3"/>
	</g>
	<g>
		<circle class="st0" cx="285.8" cy="1054.1" r="1.3"/>
	</g>
	<g>
		<circle class="st0" cx="353.2" cy="1054.1" r="1.3"/>
	</g>
	<g>
		<circle class="st0" cx="420.5" cy="1054.1" r="1.3"/>
	</g>
	<g>
		<circle class="st0" cx="487.9" cy="1054.1" r="1.3"/>
	</g>
	<g>
		<circle class="st0" cx="555.3" cy="1054.1" r="1.3"/>
	</g>
	<g>
		<circle class="st0" cx="622.7" cy="1054.1" r="1.3"/>
	</g>
	<g>
		<circle class="st0" cx="690" cy="1054.1" r="1.3"/>
	</g>
	<g>
		<circle class="st0" cx="757.4" cy="1054.1" r="1.3"/>
	</g>
	<g>
		<circle class="st0" cx="824.8" cy="1054.1" r="1.3"/>
	</g>
	<g>
		<circle class="st0" cx="892.2" cy="1054.1" r="1.3"/>
	</g>
	<g>
		<circle class="st0" cx="959.5" cy="1054.1" r="1.3"/>
	</g>
	<g>
		<circle class="st0" cx="1026.9" cy="1054.1" r="1.3"/>
	</g>
	<g>
		<circle class="st0" cx="1094.3" cy="1054.1" r="1.3"/>
	</g>
	<g>
		<circle class="st0" cx="1161.7" cy="1054.1" r="1.3"/>
	</g>
	<g>
		<circle class="st0" cx="1229" cy="1054.1" r="1.3"/>
	</g>
	<g>
		<circle class="st0" cx="1296.4" cy="1054.1" r="1.3"/>
	</g>
	<g>
		<circle class="st0" cx="1363.8" cy="1054.1" r="1.3"/>
	</g>
	<g>
		<circle class="st0" cx="1431.2" cy="1054.1" r="1.3"/>
	</g>
	<g>
		<circle class="st0" cx="1498.5" cy="1054.1" r="1.3"/>
	</g>
	<g>
		<circle class="st0" cx="1565.9" cy="1054.1" r="1.3"/>
	</g>
	<g>
		<circle class="st0" cx="1633.3" cy="1054.1" r="1.3"/>
	</g>
	<g>
		<circle class="st0" cx="1700.7" cy="1054.1" r="1.3"/>
	</g>
	<g>
		<circle class="st0" cx="1768.1" cy="1054.1" r="1.3"/>
	</g>
	<g>
		<circle class="st0" cx="1835.4" cy="1054.1" r="1.3"/>
	</g>
	<g>
		<circle class="st0" cx="1902.8" cy="1054.1" r="1.3"/>
	</g>
</g>
</svg>
