<svg width="29" height="23" viewBox="0 0 29 23" fill="none" xmlns="http://www.w3.org/2000/svg">
<path fill-rule="evenodd" clip-rule="evenodd" d="M20.7749 22.6636C20.7749 22.6636 19.9073 21.5034 19.1843 20.4782C22.3415 19.4799 23.5465 17.2675 23.5465 17.2675C22.5584 17.996 21.6185 18.5086 20.7749 18.8594C19.5699 19.426 18.413 19.8037 17.2803 20.0195C14.9666 20.5052 12.8457 20.3703 11.0382 19.9925C9.66444 19.6958 8.4835 19.2641 7.49536 18.8324C6.94104 18.5896 6.33852 18.2928 5.736 17.9151C5.69985 17.8881 5.6637 17.8678 5.62755 17.8476C5.59139 17.8274 5.55524 17.8071 5.51909 17.7802C5.47089 17.7532 5.44679 17.7262 5.42269 17.6992C4.98887 17.4294 4.74787 17.2406 4.74787 17.2406C4.74787 17.2406 5.90471 19.399 8.96551 20.4242C8.24249 21.4495 7.35076 22.6636 7.35076 22.6636C2.02447 22.4747 0 18.5626 0 18.5626C0 9.87497 3.47052 2.83314 3.47052 2.83314C6.94104 -0.0807162 10.2429 0.000224211 10.2429 0.000224211L10.4839 0.323986C6.14571 1.72696 4.14534 3.85839 4.14534 3.85839C4.14534 3.85839 4.67556 3.53463 5.56729 3.07596C8.14608 1.8079 10.1947 1.45715 11.0382 1.37621L11.0922 1.36599C11.2138 1.34281 11.3217 1.32225 11.4479 1.32225C12.918 1.10641 14.581 1.05245 16.3163 1.26829C18.6058 1.56507 21.0641 2.32052 23.5706 3.85839C23.5706 3.85839 21.6667 1.83488 17.5695 0.431907L17.9069 0.000224211C17.9069 0.000224211 21.2087 -0.0807162 24.6793 2.83314C24.6793 2.83314 28.1498 9.87497 28.1498 18.5626C28.1498 18.5626 26.1012 22.4747 20.7749 22.6636ZM10.2436 10.5538C8.88068 10.5538 7.80469 11.9426 7.80469 13.6369C7.80469 15.3312 8.9046 16.7199 10.2436 16.7199C11.6065 16.7199 12.6825 15.3312 12.6825 13.6369C12.7065 11.9426 11.6065 10.5538 10.2436 10.5538ZM16.5312 13.6369C16.5312 11.9426 17.6072 10.5538 18.9702 10.5538C20.3331 10.5538 21.4091 11.9426 21.4091 13.6369C21.4091 15.3312 20.3331 16.7199 18.9702 16.7199C17.6311 16.7199 16.5312 15.3312 16.5312 13.6369Z" fill="cyan"/>
</svg>

