<svg width="28" height="24" viewBox="0 0 28 24" fill="none" xmlns="http://www.w3.org/2000/svg">
<path fill-rule="evenodd" clip-rule="evenodd" d="M13.5956 6.38438L13.6563 7.42244L12.6447 7.29533C8.96257 6.80808 5.74576 5.15564 3.0145 2.3804L1.67922 1.00337L1.33528 2.02025C0.606946 4.28706 1.07227 6.68097 2.58964 8.29103C3.3989 9.1808 3.21682 9.30791 1.82084 8.77829C1.33528 8.60881 0.910419 8.4817 0.869956 8.54525C0.728336 8.69355 1.21389 10.6214 1.59829 11.384C2.12431 12.4433 3.19658 13.4814 4.37001 14.0957L5.36136 14.583L4.18793 14.6042C3.05496 14.6042 3.0145 14.6254 3.13589 15.0702C3.54052 16.4473 5.13881 17.909 6.91919 18.5446L8.17354 18.9895L7.08104 19.6674C5.46252 20.6419 3.56075 21.1927 1.65899 21.2351C0.748567 21.2563 0 21.341 0 21.4046C0 21.6164 2.46825 22.8028 3.90469 23.2689C8.21401 24.6459 13.3326 24.0527 17.1766 21.7012C19.9078 20.0275 22.6391 16.7015 23.9137 13.4814C24.6016 11.7654 25.2894 8.62999 25.2894 7.12585C25.2894 6.15134 25.3501 6.02423 26.4831 4.85905C27.1507 4.18113 27.7779 3.43965 27.8993 3.2278C28.1016 2.82529 28.0814 2.82529 27.0496 3.18543C25.3299 3.82098 25.0871 3.73624 25.9368 2.78292C26.564 2.10499 27.3126 0.876262 27.3126 0.516116C27.3126 0.45256 27.0091 0.558486 26.6652 0.749151C26.301 0.961002 25.4917 1.27878 24.8848 1.46944L23.7923 1.82959L22.801 1.13048C22.2547 0.749151 21.4859 0.32545 21.0813 0.19834C20.0495 -0.098251 18.4714 -0.0558809 17.5407 0.28308C15.0118 1.23641 13.4135 3.69387 13.5956 6.38438Z" fill="cyan"/>
</svg>
